<svg width="1046" height="319" viewBox="0 0 1046 319" fill="none" xmlns="http://www.w3.org/2000/svg">
<rect y="17" width="300" height="300" rx="60" fill="#0D6EFD"/>
<rect x="193" y="17" width="848" height="300" rx="60" fill="#0D6EFD"/>
<g filter="url(#filter0_d_201_2)">
<path d="M157.851 268.3C146.851 268.3 137.151 265.8 128.751 260.8C120.551 255.6 114.751 248.1 111.351 238.3L114.351 228.4L111.951 244.9C110.951 252.3 108.351 258 104.151 262C100.151 265.8 94.4507 267.7 87.0507 267.7C79.8507 267.7 74.5507 265.4 71.1507 260.8C67.9507 256 66.9507 249.5 68.1507 241.3L94.8507 73.6C95.8507 66.2 98.5507 60.6 102.951 56.8C107.351 52.8 113.351 50.8 120.951 50.8C127.951 50.8 133.051 53.2 136.251 58C139.651 62.6 140.751 69 139.551 77.2L129.051 143.5H126.051C131.451 134.3 138.551 127.2 147.351 122.2C156.151 117.2 166.051 114.7 177.051 114.7C188.051 114.7 197.651 117.3 205.851 122.5C214.251 127.5 220.651 134.8 225.051 144.4C229.651 154 231.951 165.3 231.951 178.3C231.951 195.3 228.951 210.6 222.951 224.2C216.951 237.8 208.351 248.6 197.151 256.6C186.151 264.4 173.051 268.3 157.851 268.3ZM148.551 234.4C156.551 234.4 163.351 232.1 168.951 227.5C174.551 222.7 178.851 216.3 181.851 208.3C184.851 200.1 186.351 190.9 186.351 180.7C186.351 170.3 183.851 162.4 178.851 157C174.051 151.4 167.351 148.6 158.751 148.6C150.751 148.6 143.951 150.9 138.351 155.5C132.751 160.1 128.451 166.5 125.451 174.7C122.451 182.7 120.951 191.8 120.951 202C120.951 212.4 123.351 220.4 128.151 226C133.151 231.6 139.951 234.4 148.551 234.4Z" fill="white"/>
<path d="M128.751 260.8L128.483 261.222L128.495 261.23L128.751 260.8ZM111.351 238.3L110.872 238.155L110.825 238.31L110.878 238.464L111.351 238.3ZM114.351 228.4L114.846 228.472L113.872 228.255L114.351 228.4ZM111.951 244.9L111.456 244.828L111.455 244.833L111.951 244.9ZM104.151 262L104.495 262.362L104.496 262.362L104.151 262ZM71.1507 260.8L70.7347 261.077L70.7414 261.087L70.7486 261.097L71.1507 260.8ZM68.1507 241.3L67.6569 241.221L67.656 241.228L68.1507 241.3ZM94.8507 73.6L95.3446 73.6786L95.3462 73.667L94.8507 73.6ZM102.951 56.8L103.278 57.1785L103.287 57.17L102.951 56.8ZM136.251 58L135.835 58.2773L135.841 58.2874L135.849 58.2972L136.251 58ZM139.551 77.2L140.045 77.2782L140.045 77.2724L139.551 77.2ZM129.051 143.5V144H129.478L129.545 143.578L129.051 143.5ZM126.051 143.5L125.62 143.247L125.177 144H126.051V143.5ZM147.351 122.2L147.598 122.635L147.598 122.635L147.351 122.2ZM205.851 122.5L205.583 122.922L205.595 122.93L205.851 122.5ZM225.051 144.4L224.596 144.608L224.6 144.616L225.051 144.4ZM222.951 224.2L223.408 224.402L223.408 224.402L222.951 224.2ZM197.151 256.6L197.44 257.008L197.441 257.007L197.151 256.6ZM168.951 227.5L169.268 227.886L169.276 227.88L168.951 227.5ZM181.851 208.3L182.319 208.476L182.32 208.472L181.851 208.3ZM178.851 157L178.471 157.325L178.477 157.333L178.484 157.34L178.851 157ZM125.451 174.7L125.919 174.876L125.92 174.872L125.451 174.7ZM128.151 226L127.771 226.325L127.778 226.333L128.151 226ZM157.851 267.8C146.929 267.8 137.32 265.319 129.006 260.37L128.495 261.23C136.982 266.281 146.772 268.8 157.851 268.8V267.8ZM129.018 260.378C120.921 255.243 115.189 247.837 111.823 238.136L110.878 238.464C114.313 248.363 120.181 255.957 128.483 261.222L129.018 260.378ZM111.829 238.445L114.829 228.545L113.872 228.255L110.872 238.155L111.829 238.445ZM113.856 228.328L111.456 244.828L112.446 244.972L114.846 228.472L113.856 228.328ZM111.455 244.833C110.466 252.153 107.902 257.736 103.806 261.638L104.496 262.362C108.799 258.264 111.435 252.447 112.446 244.967L111.455 244.833ZM103.806 261.637C99.9273 265.323 94.3673 267.2 87.0507 267.2V268.2C94.5341 268.2 100.374 266.277 104.495 262.362L103.806 261.637ZM87.0507 267.2C79.9638 267.2 74.8344 264.943 71.5528 260.503L70.7486 261.097C74.267 265.857 79.7376 268.2 87.0507 268.2V267.2ZM71.5667 260.523C68.4601 255.863 67.4556 249.503 68.6454 241.372L67.656 241.228C66.4458 249.497 67.4414 256.137 70.7347 261.077L71.5667 260.523ZM68.6445 241.379L95.3445 73.6786L94.3569 73.5214L67.6569 241.221L68.6445 241.379ZM95.3462 73.667C96.3346 66.3525 98.9937 60.8781 103.278 57.1784L102.624 56.4216C98.1077 60.3219 95.3668 66.0475 94.3552 73.533L95.3462 73.667ZM103.287 57.17C107.572 53.2749 113.439 51.3 120.951 51.3V50.3C113.262 50.3 107.13 52.3251 102.614 56.43L103.287 57.17ZM120.951 51.3C127.824 51.3 132.748 53.6473 135.835 58.2773L136.667 57.7226C133.353 52.7527 128.077 50.3 120.951 50.3V51.3ZM135.849 58.2972C139.141 62.7514 140.245 68.9995 139.056 77.1276L140.045 77.2724C141.256 69.0004 140.161 62.4486 136.653 57.7028L135.849 58.2972ZM139.057 77.1218L128.557 143.422L129.545 143.578L140.045 77.2782L139.057 77.1218ZM129.051 143H126.051V144H129.051V143ZM126.482 143.753C131.84 134.624 138.878 127.589 147.598 122.635L147.104 121.765C138.223 126.811 131.061 133.975 125.62 143.247L126.482 143.753ZM147.598 122.635C156.316 117.681 166.13 115.2 177.051 115.2V114.2C165.972 114.2 155.985 116.719 147.104 121.765L147.598 122.635ZM177.051 115.2C187.969 115.2 197.473 117.78 205.583 122.922L206.118 122.078C197.828 116.82 188.133 114.2 177.051 114.2V115.2ZM205.595 122.93C213.901 127.874 220.235 135.093 224.596 144.608L225.505 144.192C221.067 134.507 214.601 127.126 206.106 122.07L205.595 122.93ZM224.6 144.616C229.161 154.135 231.451 165.359 231.451 178.3H232.451C232.451 165.241 230.14 153.865 225.502 144.184L224.6 144.616ZM231.451 178.3C231.451 195.24 228.461 210.47 222.493 223.998L223.408 224.402C229.44 210.73 232.451 195.36 232.451 178.3H231.451ZM222.493 223.998C216.526 237.523 207.981 248.249 196.86 256.193L197.441 257.007C208.72 248.951 217.375 238.077 223.408 224.402L222.493 223.998ZM196.862 256.192C185.957 263.925 172.961 267.8 157.851 267.8V268.8C173.141 268.8 186.345 264.875 197.44 257.008L196.862 256.192ZM148.551 234.9C156.654 234.9 163.569 232.568 169.268 227.886L168.633 227.114C163.132 231.632 156.448 233.9 148.551 233.9V234.9ZM169.276 227.88C174.95 223.017 179.294 216.542 182.319 208.476L181.383 208.124C178.407 216.058 174.152 222.383 168.625 227.12L169.276 227.88ZM182.32 208.472C185.343 200.208 186.851 190.949 186.851 180.7H185.851C185.851 190.851 184.358 199.992 181.381 208.128L182.32 208.472ZM186.851 180.7C186.851 170.226 184.333 162.185 179.218 156.66L178.484 157.34C183.368 162.615 185.851 170.374 185.851 180.7H186.851ZM179.23 156.675C174.319 150.945 167.47 148.1 158.751 148.1V149.1C167.232 149.1 173.782 151.855 178.471 157.325L179.23 156.675ZM158.751 148.1C150.648 148.1 143.732 150.432 138.033 155.114L138.668 155.886C144.169 151.368 150.854 149.1 158.751 149.1V148.1ZM138.033 155.114C132.351 159.781 128.006 166.262 124.981 174.528L125.92 174.872C128.896 166.738 133.15 160.419 138.668 155.886L138.033 155.114ZM124.983 174.524C121.958 182.59 120.451 191.751 120.451 202H121.451C121.451 191.849 122.944 182.81 125.919 174.876L124.983 174.524ZM120.451 202C120.451 212.471 122.867 220.604 127.771 226.325L128.53 225.675C123.835 220.196 121.451 212.329 121.451 202H120.451ZM127.778 226.333C132.887 232.055 139.831 234.9 148.551 234.9V233.9C140.07 233.9 133.415 231.145 128.524 225.667L127.778 226.333Z" fill="#FFFDFD"/>
</g>
<path d="M163.815 147.5H158.333C152.948 147.5 147.654 148.892 142.965 151.542C140.664 152.842 138.538 154.429 136.637 156.265L134.731 158.105C128.35 164.266 123.65 171.956 121.077 180.445L120 184L117.5 200.121L116.559 212.596C116.201 217.333 117.757 222.016 120.879 225.597C122.826 227.83 125.302 229.54 128.079 230.572L136.379 233.654C139.443 234.792 142.658 235.471 145.921 235.668C159.288 236.474 171.828 229.157 177.702 217.122L181.371 209.604C184.417 203.364 186 196.512 186 189.568V167.5V154.587C186 153.882 185.768 153.197 185.34 152.636C184.944 152.119 184.401 151.735 183.783 151.533L176 149C172.015 148.004 167.923 147.5 163.815 147.5Z" fill="white" stroke="white"/>
<g filter="url(#filter1_d_201_2)">
<path d="M297.277 234.2C287.143 234.2 278.477 232.333 271.277 228.6C264.077 224.867 258.543 219.6 254.677 212.8C250.943 206 249.077 198.067 249.077 189C249.077 179.933 250.543 171.867 253.477 164.8C256.543 157.6 260.677 151.6 265.877 146.8C271.21 141.867 277.21 138.133 283.877 135.6C290.677 133.067 297.81 131.8 305.277 131.8C315.41 131.8 324.077 133.667 331.277 137.4C338.477 141 344.01 146.2 347.877 153C351.743 159.8 353.677 167.733 353.677 176.8C353.677 186 352.143 194.133 349.077 201.2C346.01 208.267 341.81 214.267 336.477 219.2C331.277 224.133 325.277 227.867 318.477 230.4C311.81 232.933 304.743 234.2 297.277 234.2ZM298.077 211.6C303.41 211.6 307.877 210.067 311.477 207C315.21 203.8 318.077 199.533 320.077 194.2C322.21 188.733 323.277 182.6 323.277 175.8C323.277 168.867 321.61 163.6 318.277 160C314.943 156.267 310.41 154.4 304.677 154.4C299.477 154.4 294.943 155.933 291.077 159C287.343 162.067 284.477 166.333 282.477 171.8C280.477 177.133 279.477 183.2 279.477 190C279.477 196.933 281.077 202.267 284.277 206C287.61 209.733 292.21 211.6 298.077 211.6ZM426.45 234.2C419.117 234.2 412.65 232.533 407.05 229.2C401.583 225.733 397.717 220.733 395.45 214.2L397.45 207.6L395.85 218.6C395.183 223.533 393.45 227.333 390.65 230C387.983 232.533 384.183 233.8 379.25 233.8C374.45 233.8 370.917 232.267 368.65 229.2C366.517 226 365.85 221.667 366.65 216.2L384.45 104.4C385.117 99.4667 386.917 95.7333 389.85 93.2C392.783 90.5333 396.783 89.2 401.85 89.2C406.517 89.2 409.917 90.8 412.05 94C414.317 97.0667 415.05 101.333 414.25 106.8L407.25 151H405.25C408.85 144.867 413.583 140.133 419.45 136.8C425.317 133.467 431.917 131.8 439.25 131.8C446.583 131.8 452.983 133.533 458.45 137C464.05 140.333 468.317 145.2 471.25 151.6C474.317 158 475.85 165.533 475.85 174.2C475.85 185.533 473.85 195.733 469.85 204.8C465.85 213.867 460.117 221.067 452.65 226.4C445.317 231.6 436.583 234.2 426.45 234.2ZM420.25 211.6C425.583 211.6 430.117 210.067 433.85 207C437.583 203.8 440.45 199.533 442.45 194.2C444.45 188.733 445.45 182.6 445.45 175.8C445.45 168.867 443.783 163.6 440.45 160C437.25 156.267 432.783 154.4 427.05 154.4C421.717 154.4 417.183 155.933 413.45 159C409.717 162.067 406.85 166.333 404.85 171.8C402.85 177.133 401.85 183.2 401.85 190C401.85 196.933 403.45 202.267 406.65 206C409.983 209.733 414.517 211.6 420.25 211.6ZM539.52 234.2C529.254 234.2 520.32 232.333 512.72 228.6C505.12 224.733 499.254 219.4 495.12 212.6C490.987 205.8 488.92 197.933 488.92 189C488.92 177.8 491.32 167.933 496.12 159.4C500.92 150.867 507.454 144.133 515.72 139.2C524.12 134.267 533.587 131.8 544.12 131.8C552.387 131.8 559.387 133.2 565.12 136C570.854 138.8 575.387 142.6 578.72 147.4C582.054 152.067 584.254 157.467 585.32 163.6C586.52 169.6 586.787 175.8 586.12 182.2C585.72 185.267 584.854 187.267 583.52 188.2C582.187 189 580.387 189.4 578.12 189.4H513.32L515.52 173.8H565.72L562.52 176.6C563.187 171.8 562.987 167.6 561.92 164C560.854 160.267 558.854 157.333 555.92 155.2C552.987 152.933 548.987 151.8 543.92 151.8C538.854 151.8 534.52 153 530.92 155.4C527.454 157.667 524.72 160.667 522.72 164.4C520.72 168 519.32 172 518.52 176.4L517.52 183.4C516.054 192.2 517.52 199.133 521.92 204.2C526.454 209.133 533.32 211.6 542.52 211.6C545.987 211.6 549.72 211.2 553.72 210.4C557.854 209.6 561.52 208.4 564.72 206.8C567.654 205.333 570.187 204.867 572.32 205.4C574.587 205.8 576.32 206.867 577.52 208.6C578.72 210.333 579.32 212.333 579.32 214.6C579.454 216.733 578.854 218.933 577.52 221.2C576.32 223.333 574.387 225.133 571.72 226.6C567.054 229.133 561.787 231 555.92 232.2C550.054 233.533 544.587 234.2 539.52 234.2ZM611.086 233.8C606.153 233.8 602.553 232.333 600.286 229.4C598.153 226.333 597.553 222.133 598.486 216.8L609.486 146.6C610.286 141.8 612.086 138.2 614.886 135.8C617.819 133.4 621.619 132.2 626.286 132.2C631.086 132.2 634.553 133.667 636.686 136.6C638.819 139.4 639.486 143.533 638.686 149L637.086 157.8H635.286C637.819 149.933 642.086 143.733 648.086 139.2C654.219 134.667 661.286 132.2 669.286 131.8C673.286 131.667 676.086 132.4 677.686 134C679.286 135.467 680.086 138 680.086 141.6C680.086 146.933 678.819 150.867 676.286 153.4C673.886 155.933 670.153 157.467 665.086 158L658.486 158.6C650.619 159.4 644.953 161.8 641.486 165.8C638.019 169.667 635.686 175.333 634.486 182.8L628.686 219.2C628.019 224.133 626.153 227.8 623.086 230.2C620.153 232.6 616.153 233.8 611.086 233.8ZM719.131 234.2C712.865 234.2 706.798 233.6 700.931 232.4C695.065 231.2 689.931 229.667 685.531 227.8C682.465 226.467 680.265 224.733 678.931 222.6C677.731 220.467 677.198 218.267 677.331 216C677.598 213.733 678.331 211.733 679.531 210C680.865 208.267 682.665 207.133 684.931 206.6C687.198 205.933 689.731 206.2 692.531 207.4C696.798 209.4 701.198 210.933 705.731 212C710.265 212.933 714.665 213.4 718.931 213.4C724.665 213.4 728.931 212.4 731.731 210.4C734.665 208.4 736.131 205.867 736.131 202.8C736.131 200.533 735.331 198.733 733.731 197.4C732.265 195.933 729.865 194.933 726.531 194.4L708.331 191C700.598 189.667 694.598 186.8 690.331 182.4C686.065 177.867 683.931 172.2 683.931 165.4C683.931 159.4 685.665 153.867 689.131 148.8C692.731 143.6 697.998 139.467 704.931 136.4C711.865 133.333 720.398 131.8 730.531 131.8C734.931 131.8 739.731 132.333 744.931 133.4C750.131 134.467 754.731 136 758.731 138C761.665 139.333 763.731 141.067 764.931 143.2C766.131 145.333 766.598 147.467 766.331 149.6C766.198 151.733 765.398 153.667 763.931 155.4C762.598 157 760.798 158.067 758.531 158.6C756.265 159 753.665 158.6 750.731 157.4C747.531 155.8 743.998 154.6 740.131 153.8C736.398 152.867 732.665 152.4 728.931 152.4C722.931 152.4 718.398 153.467 715.331 155.6C712.398 157.733 710.931 160.467 710.931 163.8C710.931 165.667 711.531 167.333 712.731 168.8C714.065 170.133 716.198 171.067 719.131 171.6L737.131 175C745.665 176.6 752.131 179.6 756.531 184C760.931 188.267 763.131 193.8 763.131 200.6C763.131 211.4 759.065 219.733 750.931 225.6C742.931 231.333 732.331 234.2 719.131 234.2ZM790.969 233.8C786.169 233.8 782.702 232.267 780.569 229.2C778.435 226 777.769 221.667 778.569 216.2L796.369 104C797.035 99.0667 798.835 95.4 801.769 93C804.702 90.4667 808.702 89.2 813.769 89.2C818.435 89.2 821.835 90.8 823.969 94C826.102 97.0667 826.769 101.4 825.969 107L815.369 174.4H815.769L850.169 141.2C853.235 138 855.969 135.733 858.369 134.4C860.902 132.933 863.969 132.2 867.569 132.2C871.702 132.2 874.702 133.333 876.569 135.6C878.435 137.733 879.169 140.467 878.769 143.8C878.502 147 876.969 150.067 874.169 153L839.769 186.8L839.369 175L867.169 212.6C869.569 216.067 870.635 219.4 870.369 222.6C870.102 225.8 868.835 228.467 866.569 230.6C864.302 232.733 861.235 233.8 857.369 233.8C852.969 233.8 849.502 232.933 846.969 231.2C844.569 229.333 841.969 226.4 839.169 222.4L813.569 188.2H813.169L808.369 219C806.769 228.867 800.969 233.8 790.969 233.8ZM902.092 233.8C897.426 233.8 893.959 232.267 891.692 229.2C889.559 226 888.959 221.667 889.892 216.2L900.892 147.2C901.559 142.133 903.359 138.4 906.292 136C909.226 133.467 913.226 132.2 918.292 132.2C922.959 132.2 926.359 133.733 928.492 136.8C930.626 139.867 931.292 144.2 930.492 149.8L919.492 218.8C918.692 223.733 916.892 227.467 914.092 230C911.292 232.533 907.292 233.8 902.092 233.8ZM921.092 115.8C915.759 115.8 911.759 114.533 909.092 112C906.559 109.467 905.559 105.867 906.092 101.2C906.892 96 908.959 92.1333 912.292 89.6C915.626 86.9333 920.159 85.6 925.892 85.6C931.226 85.6 935.226 86.8667 937.892 89.4C940.559 91.9333 941.492 95.6 940.692 100.4C940.026 105.467 938.026 109.333 934.692 112C931.359 114.533 926.826 115.8 921.092 115.8ZM955.608 233.8C950.941 233.8 947.474 232.267 945.208 229.2C943.074 226 942.474 221.667 943.408 216.2L954.408 147.2C955.074 142.133 956.874 138.4 959.808 136C962.741 133.467 966.741 132.2 971.808 132.2C976.474 132.2 979.874 133.733 982.008 136.8C984.141 139.867 984.808 144.2 984.008 149.8L973.008 218.8C972.208 223.733 970.408 227.467 967.608 230C964.808 232.533 960.808 233.8 955.608 233.8ZM974.608 115.8C969.274 115.8 965.274 114.533 962.608 112C960.074 109.467 959.074 105.867 959.608 101.2C960.408 96 962.474 92.1333 965.808 89.6C969.141 86.9333 973.674 85.6 979.408 85.6C984.741 85.6 988.741 86.8667 991.408 89.4C994.074 91.9333 995.008 95.6 994.208 100.4C993.541 105.467 991.541 109.333 988.208 112C984.874 114.533 980.341 115.8 974.608 115.8Z" fill="white"/>
<path d="M271.277 228.6L271.507 228.156L271.277 228.6ZM254.677 212.8L254.238 213.041L254.242 213.047L254.677 212.8ZM253.477 164.8L253.017 164.604L253.015 164.608L253.477 164.8ZM265.877 146.8L266.216 147.167L266.216 147.167L265.877 146.8ZM283.877 135.6L283.702 135.131L283.699 135.133L283.877 135.6ZM331.277 137.4L331.046 137.844L331.053 137.847L331.277 137.4ZM347.877 153L347.442 153.247L347.442 153.247L347.877 153ZM349.077 201.2L348.618 201.001L348.618 201.001L349.077 201.2ZM336.477 219.2L336.137 218.833L336.132 218.837L336.477 219.2ZM318.477 230.4L318.302 229.931L318.299 229.933L318.477 230.4ZM311.477 207L311.801 207.381L311.802 207.38L311.477 207ZM320.077 194.2L319.611 194.018L319.608 194.024L320.077 194.2ZM318.277 160L317.904 160.333L317.91 160.34L318.277 160ZM291.077 159L290.766 158.608L290.759 158.614L291.077 159ZM282.477 171.8L282.945 171.976L282.946 171.972L282.477 171.8ZM284.277 206L283.897 206.325L283.904 206.333L284.277 206ZM297.277 233.7C287.204 233.7 278.62 231.845 271.507 228.156L271.046 229.044C278.333 232.822 287.083 234.7 297.277 234.7V233.7ZM271.507 228.156C264.389 224.466 258.928 219.266 255.111 212.553L254.242 213.047C258.158 219.934 263.764 225.268 271.046 229.044L271.507 228.156ZM255.115 212.559C251.428 205.845 249.577 197.997 249.577 189H248.577C248.577 198.137 250.458 206.155 254.238 213.041L255.115 212.559ZM249.577 189C249.577 179.987 251.034 171.987 253.938 164.992L253.015 164.608C250.052 171.746 248.577 179.879 248.577 189H249.577ZM253.937 164.996C256.978 157.854 261.073 151.915 266.216 147.167L265.537 146.433C260.28 151.285 256.108 157.346 253.017 164.604L253.937 164.996ZM266.216 147.167C271.503 142.276 277.449 138.578 284.054 136.067L283.699 135.133C276.971 137.689 270.917 141.457 265.537 146.433L266.216 147.167ZM284.051 136.069C290.794 133.557 297.868 132.3 305.277 132.3V131.3C297.752 131.3 290.559 132.577 283.702 135.131L284.051 136.069ZM305.277 132.3C315.349 132.3 323.933 134.155 331.046 137.844L331.507 136.956C324.22 133.178 315.47 131.3 305.277 131.3V132.3ZM331.053 137.847C338.167 141.404 343.626 146.536 347.442 153.247L348.311 152.753C344.394 145.864 338.786 140.596 331.5 136.953L331.053 137.847ZM347.442 153.247C351.259 159.961 353.177 167.806 353.177 176.8H354.177C354.177 167.661 352.227 159.639 348.311 152.753L347.442 153.247ZM353.177 176.8C353.177 185.945 351.653 194.008 348.618 201.001L349.535 201.399C352.634 194.259 354.177 186.055 354.177 176.8H353.177ZM348.618 201.001C345.577 208.008 341.416 213.95 336.137 218.833L336.816 219.567C342.203 214.584 346.443 208.525 349.535 201.399L348.618 201.001ZM336.132 218.837C330.982 223.724 325.04 227.421 318.302 229.931L318.651 230.869C325.513 228.312 331.571 224.543 336.821 219.563L336.132 218.837ZM318.299 229.933C311.692 232.443 304.685 233.7 297.277 233.7V234.7C304.801 234.7 311.928 233.423 318.654 230.867L318.299 229.933ZM298.077 212.1C303.513 212.1 308.099 210.534 311.801 207.381L311.152 206.619C307.654 209.599 303.307 211.1 298.077 211.1V212.1ZM311.802 207.38C315.609 204.117 318.52 199.775 320.545 194.376L319.608 194.024C317.633 199.291 314.811 203.483 311.151 206.62L311.802 207.38ZM320.542 194.382C322.702 188.849 323.777 182.652 323.777 175.8H322.777C322.777 182.548 321.718 188.618 319.611 194.018L320.542 194.382ZM323.777 175.8C323.777 168.793 322.092 163.385 318.643 159.66L317.91 160.34C321.128 163.815 322.777 168.941 322.777 175.8H323.777ZM318.65 159.667C315.207 155.811 310.529 153.9 304.677 153.9V154.9C310.29 154.9 314.679 156.722 317.904 160.333L318.65 159.667ZM304.677 153.9C299.37 153.9 294.726 155.468 290.766 158.608L291.387 159.392C295.161 156.399 299.583 154.9 304.677 154.9V153.9ZM290.759 158.614C286.944 161.748 284.031 166.095 282.007 171.628L282.946 171.972C284.922 166.572 287.742 162.386 291.394 159.386L290.759 158.614ZM282.008 171.624C279.984 177.024 278.977 183.151 278.977 190H279.977C279.977 183.249 280.969 177.243 282.945 171.976L282.008 171.624ZM278.977 190C278.977 197.004 280.593 202.47 283.897 206.325L284.656 205.675C281.56 202.063 279.977 196.862 279.977 190H278.977ZM283.904 206.333C287.348 210.191 292.094 212.1 298.077 212.1V211.1C292.325 211.1 287.871 209.276 284.65 205.667L283.904 206.333ZM407.05 229.2L406.782 229.622L406.794 229.63L407.05 229.2ZM395.45 214.2L394.971 214.055L394.924 214.21L394.978 214.364L395.45 214.2ZM397.45 207.6L397.945 207.672L396.971 207.455L397.45 207.6ZM395.85 218.6L395.355 218.528L395.355 218.533L395.85 218.6ZM390.65 230L390.994 230.362L390.995 230.362L390.65 230ZM368.65 229.2L368.234 229.477L368.241 229.487L368.248 229.497L368.65 229.2ZM366.65 216.2L366.156 216.121L366.155 216.128L366.65 216.2ZM384.45 104.4L384.944 104.479L384.945 104.467L384.45 104.4ZM389.85 93.2L390.177 93.5785L390.186 93.57L389.85 93.2ZM412.05 94L411.634 94.2773L411.641 94.2874L411.648 94.2972L412.05 94ZM414.25 106.8L414.744 106.878L414.745 106.872L414.25 106.8ZM407.25 151V151.5H407.677L407.744 151.078L407.25 151ZM405.25 151L404.819 150.747L404.377 151.5H405.25V151ZM419.45 136.8L419.697 137.235L419.697 137.235L419.45 136.8ZM458.45 137L458.182 137.422L458.194 137.43L458.45 137ZM471.25 151.6L470.795 151.808L470.799 151.816L471.25 151.6ZM469.85 204.8L470.307 205.002L470.307 205.002L469.85 204.8ZM452.65 226.4L452.939 226.808L452.941 226.807L452.65 226.4ZM433.85 207L434.167 207.386L434.175 207.38L433.85 207ZM442.45 194.2L442.918 194.376L442.92 194.372L442.45 194.2ZM440.45 160L440.07 160.325L440.077 160.333L440.083 160.34L440.45 160ZM413.45 159L413.133 158.614L413.45 159ZM404.85 171.8L405.318 171.976L405.32 171.972L404.85 171.8ZM406.65 206L406.27 206.325L406.277 206.333L406.65 206ZM426.45 233.7C419.195 233.7 412.819 232.052 407.306 228.77L406.794 229.63C412.481 233.015 419.038 234.7 426.45 234.7V233.7ZM407.318 228.778C401.953 225.376 398.155 220.47 395.922 214.036L394.978 214.364C397.279 220.996 401.213 226.091 406.782 229.622L407.318 228.778ZM395.929 214.345L397.929 207.745L396.971 207.455L394.971 214.055L395.929 214.345ZM396.955 207.528L395.355 218.528L396.345 218.672L397.945 207.672L396.955 207.528ZM395.355 218.533C394.699 223.387 393.002 227.07 390.305 229.638L390.995 230.362C393.898 227.597 395.668 223.68 396.345 218.667L395.355 218.533ZM390.306 229.638C387.76 232.056 384.1 233.3 379.25 233.3V234.3C384.267 234.3 388.207 233.011 390.994 230.362L390.306 229.638ZM379.25 233.3C374.563 233.3 371.2 231.809 369.052 228.903L368.248 229.497C370.633 232.724 374.337 234.3 379.25 234.3V233.3ZM369.066 228.923C367.026 225.863 366.355 221.67 367.145 216.272L366.155 216.128C365.345 221.664 366.007 226.137 368.234 229.477L369.066 228.923ZM367.144 216.279L384.944 104.479L383.956 104.321L366.156 216.121L367.144 216.279ZM384.945 104.467C385.601 99.6192 387.36 96.0114 390.177 93.5784L389.523 92.8216C386.474 95.4553 384.633 99.3141 383.955 104.333L384.945 104.467ZM390.186 93.57C393.004 91.0082 396.872 89.7 401.85 89.7V88.7C396.695 88.7 392.562 90.0584 389.514 92.83L390.186 93.57ZM401.85 89.7C406.39 89.7 409.614 91.2473 411.634 94.2773L412.466 93.7226C410.219 90.3527 406.643 88.7 401.85 88.7V89.7ZM411.648 94.2972C413.807 97.218 414.545 101.333 413.755 106.728L414.745 106.872C415.555 101.334 414.827 96.9153 412.452 93.7028L411.648 94.2972ZM413.756 106.722L406.756 150.922L407.744 151.078L414.744 106.878L413.756 106.722ZM407.25 150.5H405.25V151.5H407.25V150.5ZM405.681 151.253C409.239 145.191 413.911 140.522 419.697 137.235L419.203 136.365C413.256 139.744 408.461 144.542 404.819 150.747L405.681 151.253ZM419.697 137.235C425.482 133.948 431.996 132.3 439.25 132.3V131.3C431.838 131.3 425.151 132.985 419.203 136.365L419.697 137.235ZM439.25 132.3C446.501 132.3 452.806 134.013 458.182 137.422L458.718 136.578C453.161 133.054 446.665 131.3 439.25 131.3V132.3ZM458.194 137.43C463.7 140.707 467.901 145.493 470.795 151.808L471.705 151.392C468.732 144.907 464.4 139.96 458.706 136.57L458.194 137.43ZM470.799 151.816C473.827 158.135 475.35 165.592 475.35 174.2H476.35C476.35 165.475 474.806 157.865 471.701 151.384L470.799 151.816ZM475.35 174.2C475.35 185.474 473.361 195.604 469.393 204.598L470.307 205.002C474.339 195.863 476.35 185.593 476.35 174.2H475.35ZM469.393 204.598C465.426 213.59 459.747 220.716 452.359 225.993L452.941 226.807C460.486 221.417 466.274 214.144 470.307 205.002L469.393 204.598ZM452.361 225.992C445.123 231.125 436.493 233.7 426.45 233.7V234.7C436.673 234.7 445.511 232.075 452.939 226.808L452.361 225.992ZM420.25 212.1C425.686 212.1 430.335 210.534 434.167 207.386L433.533 206.614C429.898 209.599 425.48 211.1 420.25 211.1V212.1ZM434.175 207.38C437.982 204.117 440.893 199.775 442.918 194.376L441.982 194.024C440.007 199.291 437.184 203.483 433.525 206.62L434.175 207.38ZM442.92 194.372C444.943 188.842 445.95 182.649 445.95 175.8H444.95C444.95 182.551 443.957 188.625 441.98 194.028L442.92 194.372ZM445.95 175.8C445.95 168.793 444.266 163.385 440.817 159.66L440.083 160.34C443.301 163.815 444.95 168.941 444.95 175.8H445.95ZM440.83 159.675C437.518 155.812 432.902 153.9 427.05 153.9V154.9C432.664 154.9 436.982 156.722 440.07 160.325L440.83 159.675ZM427.05 153.9C421.614 153.9 416.965 155.466 413.133 158.614L413.767 159.386C417.402 156.401 421.82 154.9 427.05 154.9V153.9ZM413.133 158.614C409.317 161.748 406.405 166.095 404.38 171.628L405.32 171.972C407.295 166.572 410.116 162.386 413.767 159.386L413.133 158.614ZM404.382 171.624C402.357 177.024 401.35 183.151 401.35 190H402.35C402.35 183.249 403.343 177.243 405.318 171.976L404.382 171.624ZM401.35 190C401.35 197.004 402.966 202.47 406.27 206.325L407.03 205.675C403.934 202.063 402.35 196.862 402.35 190H401.35ZM406.277 206.333C409.719 210.189 414.397 212.1 420.25 212.1V211.1C414.636 211.1 410.247 209.278 407.023 205.667L406.277 206.333ZM512.72 228.6L512.494 229.046L512.5 229.049L512.72 228.6ZM495.12 212.6L494.693 212.86L495.12 212.6ZM496.12 159.4L496.556 159.645L496.556 159.645L496.12 159.4ZM515.72 139.2L515.467 138.769L515.464 138.771L515.72 139.2ZM565.12 136L564.901 136.449L564.901 136.449L565.12 136ZM578.72 147.4L578.31 147.685L578.313 147.691L578.72 147.4ZM585.32 163.6L584.828 163.686L584.83 163.698L585.32 163.6ZM586.12 182.2L586.616 182.265L586.618 182.252L586.12 182.2ZM583.52 188.2L583.778 188.629L583.793 188.62L583.807 188.61L583.52 188.2ZM513.32 189.4L512.825 189.33L512.745 189.9H513.32V189.4ZM515.52 173.8V173.3H515.086L515.025 173.73L515.52 173.8ZM565.72 173.8L566.05 174.176L567.051 173.3H565.72V173.8ZM562.52 176.6L562.025 176.531L561.841 177.859L562.85 176.976L562.52 176.6ZM561.92 164L561.44 164.137L561.441 164.142L561.92 164ZM555.92 155.2L555.615 155.596L555.62 155.6L555.626 155.604L555.92 155.2ZM530.92 155.4L531.194 155.818L531.198 155.816L530.92 155.4ZM522.72 164.4L523.157 164.643L523.161 164.636L522.72 164.4ZM518.52 176.4L518.028 176.311L518.027 176.32L518.025 176.329L518.52 176.4ZM517.52 183.4L518.014 183.482L518.015 183.471L517.52 183.4ZM521.92 204.2L521.543 204.528L521.552 204.538L521.92 204.2ZM553.72 210.4L553.625 209.909L553.622 209.91L553.72 210.4ZM564.72 206.8L564.944 207.247L564.944 207.247L564.72 206.8ZM572.32 205.4L572.199 205.885L572.216 205.889L572.233 205.892L572.32 205.4ZM577.52 208.6L577.109 208.885L577.109 208.885L577.52 208.6ZM579.32 214.6H578.82V214.616L578.821 214.631L579.32 214.6ZM577.52 221.2L577.089 220.946L577.085 220.955L577.52 221.2ZM571.72 226.6L571.959 227.039L571.961 227.038L571.72 226.6ZM555.92 232.2L555.82 231.71L555.81 231.712L555.92 232.2ZM539.52 233.7C529.314 233.7 520.459 231.844 512.941 228.151L512.5 229.049C520.182 232.822 529.193 234.7 539.52 234.7V233.7ZM512.947 228.154C505.424 224.327 499.629 219.055 495.548 212.34L494.693 212.86C498.878 219.745 504.817 225.14 512.494 229.046L512.947 228.154ZM495.548 212.34C491.467 205.628 489.42 197.853 489.42 189H488.42C488.42 198.013 490.506 205.972 494.693 212.86L495.548 212.34ZM489.42 189C489.42 177.873 491.804 168.093 496.556 159.645L495.685 159.155C490.837 167.773 488.42 177.727 488.42 189H489.42ZM496.556 159.645C501.314 151.186 507.786 144.517 515.977 139.629L515.464 138.771C507.121 143.749 500.527 150.547 495.685 159.155L496.556 159.645ZM515.974 139.631C524.291 134.747 533.669 132.3 544.12 132.3V131.3C533.505 131.3 523.95 133.787 515.467 138.769L515.974 139.631ZM544.12 132.3C552.333 132.3 559.253 133.691 564.901 136.449L565.34 135.551C559.521 132.709 552.441 131.3 544.12 131.3V132.3ZM564.901 136.449C570.565 139.215 575.029 142.962 578.31 147.685L579.131 147.115C575.745 142.238 571.143 138.385 565.34 135.551L564.901 136.449ZM578.313 147.691C581.6 152.291 583.773 157.62 584.828 163.686L585.813 163.514C584.735 157.314 582.508 151.842 579.127 147.109L578.313 147.691ZM584.83 163.698C586.02 169.646 586.285 175.796 585.623 182.148L586.618 182.252C587.289 175.804 587.021 169.554 585.811 163.502L584.83 163.698ZM585.625 182.135C585.228 185.176 584.383 186.985 583.234 187.79L583.807 188.61C585.324 187.548 586.213 185.358 586.616 182.265L585.625 182.135ZM583.263 187.771C582.035 188.508 580.335 188.9 578.12 188.9V189.9C580.439 189.9 582.339 189.492 583.778 188.629L583.263 187.771ZM578.12 188.9H513.32V189.9H578.12V188.9ZM513.815 189.47L516.015 173.87L515.025 173.73L512.825 189.33L513.815 189.47ZM515.52 174.3H565.72V173.3H515.52V174.3ZM565.391 173.424L562.191 176.224L562.85 176.976L566.05 174.176L565.391 173.424ZM563.016 176.669C563.689 171.818 563.492 167.543 562.4 163.858L561.441 164.142C562.482 167.657 562.685 171.782 562.025 176.531L563.016 176.669ZM562.401 163.863C561.306 160.03 559.245 156.999 556.214 154.796L555.626 155.604C558.463 157.667 560.401 160.503 561.44 164.137L562.401 163.863ZM556.226 154.804C553.178 152.449 549.058 151.3 543.92 151.3V152.3C548.916 152.3 552.796 153.418 555.615 155.596L556.226 154.804ZM543.92 151.3C538.772 151.3 534.338 152.52 530.643 154.984L531.198 155.816C534.702 153.48 538.935 152.3 543.92 152.3V151.3ZM530.647 154.982C527.108 157.295 524.318 160.358 522.28 164.164L523.161 164.636C525.122 160.975 527.799 158.038 531.194 155.818L530.647 154.982ZM522.283 164.157C520.255 167.809 518.837 171.861 518.028 176.311L519.012 176.489C519.803 172.139 521.186 168.191 523.157 164.643L522.283 164.157ZM518.025 176.329L517.025 183.329L518.015 183.471L519.015 176.471L518.025 176.329ZM517.027 183.318C515.545 192.213 517.015 199.314 521.543 204.528L522.298 203.872C518.025 198.952 516.563 192.187 518.014 183.482L517.027 183.318ZM521.552 204.538C526.211 209.609 533.234 212.1 542.52 212.1V211.1C533.406 211.1 526.696 208.658 522.288 203.862L521.552 204.538ZM542.52 212.1C546.025 212.1 549.792 211.696 553.818 210.89L553.622 209.91C549.649 210.704 545.949 211.1 542.52 211.1V212.1ZM553.815 210.891C557.986 210.084 561.697 208.871 564.944 207.247L564.497 206.353C561.344 207.929 557.722 209.116 553.625 209.909L553.815 210.891ZM564.944 207.247C567.821 205.809 570.227 205.392 572.199 205.885L572.442 204.915C570.147 204.341 567.486 204.858 564.497 206.353L564.944 207.247ZM572.233 205.892C574.382 206.272 575.993 207.272 577.109 208.885L577.931 208.315C576.648 206.462 574.792 205.328 572.407 204.908L572.233 205.892ZM577.109 208.885C578.247 210.528 578.82 212.427 578.82 214.6H579.82C579.82 212.24 579.194 210.139 577.931 208.315L577.109 208.885ZM578.821 214.631C578.947 216.644 578.384 218.746 577.089 220.946L577.951 221.454C579.323 219.121 579.96 216.823 579.819 214.569L578.821 214.631ZM577.085 220.955C575.94 222.989 574.084 224.729 571.479 226.162L571.961 227.038C574.69 225.537 576.7 223.677 577.956 221.445L577.085 220.955ZM571.482 226.161C566.864 228.668 561.645 230.519 555.82 231.71L556.021 232.69C561.929 231.481 567.244 229.599 571.959 227.039L571.482 226.161ZM555.81 231.712C549.973 233.039 544.544 233.7 539.52 233.7V234.7C544.63 234.7 550.135 234.028 556.031 232.688L555.81 231.712ZM600.286 229.4L599.875 229.686L599.883 229.696L599.89 229.706L600.286 229.4ZM598.486 216.8L598.979 216.886L598.98 216.877L598.486 216.8ZM609.486 146.6L608.993 146.518L608.992 146.523L609.486 146.6ZM614.886 135.8L614.569 135.413L614.561 135.42L614.886 135.8ZM636.686 136.6L636.281 136.894L636.288 136.903L636.686 136.6ZM638.686 149L639.178 149.089L639.179 149.081L639.181 149.072L638.686 149ZM637.086 157.8V158.3H637.503L637.578 157.889L637.086 157.8ZM635.286 157.8L634.81 157.647L634.6 158.3H635.286V157.8ZM648.086 139.2L647.789 138.798L647.785 138.801L648.086 139.2ZM669.286 131.8L669.269 131.3L669.261 131.301L669.286 131.8ZM677.686 134L677.332 134.354L677.34 134.361L677.348 134.369L677.686 134ZM676.286 153.4L675.932 153.046L675.923 153.056L676.286 153.4ZM665.086 158L665.131 158.498L665.138 158.497L665.086 158ZM658.486 158.6L658.441 158.102L658.435 158.103L658.486 158.6ZM641.486 165.8L641.858 166.134L641.864 166.127L641.486 165.8ZM634.486 182.8L633.992 182.721L633.992 182.721L634.486 182.8ZM628.686 219.2L628.192 219.121L628.19 219.133L628.686 219.2ZM623.086 230.2L622.778 229.806L622.769 229.813L623.086 230.2ZM611.086 233.3C606.252 233.3 602.824 231.867 600.682 229.094L599.89 229.706C602.281 232.8 606.053 234.3 611.086 234.3V233.3ZM600.696 229.114C598.667 226.197 598.058 222.148 598.978 216.886L597.993 216.714C597.048 222.119 597.639 226.47 599.875 229.686L600.696 229.114ZM598.98 216.877L609.98 146.677L608.992 146.523L597.992 216.723L598.98 216.877ZM609.979 146.682C610.766 141.961 612.526 138.482 615.211 136.18L614.561 135.42C611.646 137.918 609.806 141.639 608.993 146.518L609.979 146.682ZM615.203 136.187C618.027 133.876 621.707 132.7 626.286 132.7V131.7C621.531 131.7 617.611 132.924 614.569 135.413L615.203 136.187ZM626.286 132.7C630.983 132.7 634.271 134.13 636.282 136.894L637.09 136.306C634.834 133.203 631.189 131.7 626.286 131.7V132.7ZM636.288 136.903C638.304 139.549 638.983 143.52 638.191 148.928L639.181 149.072C639.989 143.546 639.335 139.251 637.084 136.297L636.288 136.903ZM638.194 148.911L636.594 157.711L637.578 157.889L639.178 149.089L638.194 148.911ZM637.086 157.3H635.286V158.3H637.086V157.3ZM635.762 157.953C638.267 150.174 642.478 144.064 648.387 139.599L647.785 138.801C641.694 143.403 637.372 149.692 634.81 157.647L635.762 157.953ZM648.383 139.602C654.433 135.13 661.404 132.695 669.311 132.299L669.261 131.301C661.168 131.705 654.005 134.203 647.789 138.798L648.383 139.602ZM669.303 132.3C673.263 132.168 675.883 132.904 677.332 134.354L678.039 133.646C676.289 131.896 673.309 131.166 669.269 131.3L669.303 132.3ZM677.348 134.369C678.794 135.694 679.586 138.052 679.586 141.6H680.586C680.586 137.948 679.778 135.24 678.024 133.631L677.348 134.369ZM679.586 141.6C679.586 146.865 678.335 150.644 675.932 153.046L676.639 153.754C679.304 151.089 680.586 147.002 680.586 141.6H679.586ZM675.923 153.056C673.635 155.471 670.035 156.976 665.034 157.503L665.138 158.497C670.27 157.957 674.136 156.396 676.649 153.744L675.923 153.056ZM665.041 157.502L658.441 158.102L658.531 159.098L665.131 158.498L665.041 157.502ZM658.435 158.103C650.503 158.909 644.691 161.338 641.108 165.473L641.864 166.127C645.214 162.262 650.735 159.891 658.537 159.097L658.435 158.103ZM641.114 165.466C637.56 169.43 635.201 175.2 633.992 182.721L634.98 182.879C636.171 175.467 638.479 169.903 641.858 166.134L641.114 165.466ZM633.992 182.721L628.192 219.121L629.18 219.279L634.98 182.879L633.992 182.721ZM628.19 219.133C627.536 223.975 625.715 227.507 622.778 229.806L623.394 230.594C626.59 228.093 628.502 224.292 629.181 219.267L628.19 219.133ZM622.769 229.813C619.951 232.119 616.076 233.3 611.086 233.3V234.3C616.229 234.3 620.354 233.081 623.403 230.587L622.769 229.813ZM700.931 232.4L701.031 231.91L701.031 231.91L700.931 232.4ZM685.531 227.8L685.332 228.259L685.336 228.26L685.531 227.8ZM678.931 222.6L678.495 222.845L678.501 222.855L678.507 222.865L678.931 222.6ZM677.331 216L676.835 215.942L676.833 215.956L676.832 215.971L677.331 216ZM679.531 210L679.135 209.695L679.127 209.705L679.12 209.715L679.531 210ZM684.931 206.6L685.046 207.087L685.059 207.084L685.072 207.08L684.931 206.6ZM692.531 207.4L692.743 206.947L692.736 206.944L692.728 206.94L692.531 207.4ZM705.731 212L705.617 212.487L705.63 212.49L705.731 212ZM731.731 210.4L731.45 209.987L731.441 209.993L731.731 210.4ZM733.731 197.4L733.378 197.754L733.394 197.77L733.411 197.784L733.731 197.4ZM726.531 194.4L726.439 194.892L726.452 194.894L726.531 194.4ZM708.331 191L708.423 190.508L708.416 190.507L708.331 191ZM690.331 182.4L689.967 182.743L689.972 182.748L690.331 182.4ZM689.131 148.8L688.72 148.515L688.719 148.518L689.131 148.8ZM704.931 136.4L705.134 136.857L705.134 136.857L704.931 136.4ZM758.731 138L758.508 138.447L758.516 138.451L758.524 138.455L758.731 138ZM764.931 143.2L765.367 142.955L765.367 142.955L764.931 143.2ZM766.331 149.6L765.835 149.538L765.833 149.553L765.832 149.569L766.331 149.6ZM763.931 155.4L763.55 155.077L763.547 155.08L763.931 155.4ZM758.531 158.6L758.618 159.092L758.632 159.09L758.646 159.087L758.531 158.6ZM750.731 157.4L750.508 157.847L750.524 157.856L750.542 157.863L750.731 157.4ZM740.131 153.8L740.01 154.285L740.02 154.288L740.03 154.29L740.131 153.8ZM715.331 155.6L715.046 155.189L715.037 155.196L715.331 155.6ZM712.731 168.8L712.344 169.117L712.36 169.136L712.378 169.154L712.731 168.8ZM719.131 171.6L719.224 171.109L719.221 171.108L719.131 171.6ZM737.131 175L737.038 175.491L737.039 175.491L737.131 175ZM756.531 184L756.178 184.354L756.183 184.359L756.531 184ZM750.931 225.6L751.223 226.006L751.224 226.006L750.931 225.6ZM719.131 233.7C712.897 233.7 706.864 233.103 701.031 231.91L700.831 232.89C706.732 234.097 712.832 234.7 719.131 234.7V233.7ZM701.031 231.91C695.19 230.715 690.089 229.191 685.727 227.34L685.336 228.26C689.773 230.143 694.94 231.685 700.831 232.89L701.031 231.91ZM685.731 227.341C682.727 226.035 680.62 224.358 679.355 222.335L678.507 222.865C679.909 225.108 682.203 226.898 685.332 228.259L685.731 227.341ZM679.367 222.355C678.21 220.298 677.703 218.193 677.83 216.029L676.832 215.971C676.693 218.34 677.252 220.635 678.495 222.845L679.367 222.355ZM677.828 216.058C678.086 213.866 678.793 211.945 679.942 210.285L679.12 209.715C677.87 211.521 677.11 213.601 676.835 215.942L677.828 216.058ZM679.928 210.305C681.186 208.669 682.883 207.596 685.046 207.087L684.817 206.113C682.446 206.671 680.543 207.864 679.135 209.695L679.928 210.305ZM685.072 207.08C687.198 206.454 689.61 206.692 692.334 207.86L692.728 206.94C689.853 205.708 687.197 205.412 684.79 206.12L685.072 207.08ZM692.319 207.853C696.617 209.867 701.049 211.412 705.617 212.487L705.846 211.513C701.346 210.455 696.979 208.933 692.743 206.947L692.319 207.853ZM705.63 212.49C710.194 213.429 714.628 213.9 718.931 213.9V212.9C714.701 212.9 710.335 212.437 705.832 211.51L705.63 212.49ZM718.931 213.9C724.706 213.9 729.097 212.896 732.022 210.807L731.441 209.993C728.765 211.904 724.623 212.9 718.931 212.9V213.9ZM732.013 210.813C735.058 208.737 736.631 206.06 736.631 202.8H735.631C735.631 205.673 734.271 208.063 731.45 209.987L732.013 210.813ZM736.631 202.8C736.631 200.4 735.776 198.453 734.051 197.016L733.411 197.784C734.886 199.013 735.631 200.667 735.631 202.8H736.631ZM734.085 197.046C732.51 195.472 729.988 194.447 726.61 193.906L726.452 194.894C729.741 195.42 732.019 196.395 733.378 197.754L734.085 197.046ZM726.623 193.909L708.423 190.509L708.239 191.491L726.439 194.891L726.623 193.909ZM708.416 190.507C700.758 189.187 694.865 186.357 690.69 182.052L689.972 182.748C694.331 187.243 700.438 190.146 708.246 191.493L708.416 190.507ZM690.695 182.057C686.524 177.626 684.431 172.085 684.431 165.4H683.431C683.431 172.315 685.605 178.108 689.967 182.743L690.695 182.057ZM684.431 165.4C684.431 159.503 686.133 154.068 689.544 149.082L688.719 148.518C685.196 153.665 683.431 159.297 683.431 165.4H684.431ZM689.542 149.085C693.08 143.974 698.268 139.894 705.134 136.857L704.729 135.943C697.728 139.039 692.382 143.226 688.72 148.515L689.542 149.085ZM705.134 136.857C711.986 133.827 720.445 132.3 730.531 132.3V131.3C720.35 131.3 711.744 132.84 704.729 135.943L705.134 136.857ZM730.531 132.3C734.891 132.3 739.657 132.829 744.831 133.89L745.032 132.91C739.805 131.838 734.971 131.3 730.531 131.3V132.3ZM744.831 133.89C749.996 134.949 754.553 136.47 758.508 138.447L758.955 137.553C754.909 135.53 750.267 133.984 745.032 132.91L744.831 133.89ZM758.524 138.455C761.391 139.758 763.362 141.43 764.495 143.445L765.367 142.955C764.101 140.704 761.938 138.908 758.938 137.545L758.524 138.455ZM764.495 143.445C765.651 145.499 766.087 147.525 765.835 149.538L766.827 149.662C767.109 147.408 766.612 145.168 765.367 142.955L764.495 143.445ZM765.832 149.569C765.706 151.588 764.951 153.42 763.55 155.077L764.313 155.723C765.844 153.913 766.69 151.879 766.83 149.631L765.832 149.569ZM763.547 155.08C762.291 156.587 760.591 157.602 758.417 158.113L758.646 159.087C761.005 158.532 762.904 157.413 764.315 155.72L763.547 155.08ZM758.444 158.108C756.3 158.486 753.798 158.114 750.921 156.937L750.542 157.863C753.531 159.086 756.23 159.514 758.618 159.092L758.444 158.108ZM750.955 156.953C747.712 155.332 744.137 154.118 740.233 153.31L740.03 154.29C743.859 155.082 747.35 156.268 750.508 157.847L750.955 156.953ZM740.253 153.315C736.481 152.372 732.707 151.9 728.931 151.9V152.9C732.622 152.9 736.315 153.361 740.01 154.285L740.253 153.315ZM728.931 151.9C722.886 151.9 718.233 152.972 715.046 155.19L715.617 156.01C718.563 153.961 722.977 152.9 728.931 152.9V151.9ZM715.037 155.196C711.988 157.413 710.431 160.291 710.431 163.8H711.431C711.431 160.642 712.808 158.053 715.625 156.004L715.037 155.196ZM710.431 163.8C710.431 165.784 711.072 167.562 712.344 169.117L713.118 168.483C711.99 167.105 711.431 165.549 711.431 163.8H710.431ZM712.378 169.154C713.814 170.59 716.062 171.55 719.042 172.092L719.221 171.108C716.334 170.583 714.315 169.677 713.085 168.446L712.378 169.154ZM719.038 172.091L737.038 175.491L737.224 174.509L719.224 171.109L719.038 172.091ZM737.039 175.491C745.511 177.08 751.872 180.048 756.178 184.354L756.885 183.646C752.39 179.152 745.818 176.12 737.223 174.509L737.039 175.491ZM756.183 184.359C760.475 188.521 762.631 193.919 762.631 200.6H763.631C763.631 193.681 761.388 188.013 756.879 183.641L756.183 184.359ZM762.631 200.6C762.631 211.254 758.63 219.43 750.639 225.194L751.224 226.006C759.499 220.037 763.631 211.546 763.631 200.6H762.631ZM750.64 225.194C742.75 230.848 732.262 233.7 719.131 233.7V234.7C732.401 234.7 743.113 231.818 751.223 226.006L750.64 225.194ZM780.569 229.2L780.153 229.477L780.158 229.486L780.569 229.2ZM778.569 216.2L778.075 216.122L778.074 216.128L778.569 216.2ZM796.369 104L796.863 104.078L796.864 104.067L796.369 104ZM801.769 93L802.085 93.3871L802.096 93.3784L801.769 93ZM823.969 94L823.553 94.2774L823.558 94.2855L823.969 94ZM825.969 107L826.463 107.078L826.464 107.071L825.969 107ZM815.369 174.4L814.875 174.322L814.784 174.9H815.369V174.4ZM815.769 174.4V174.9H815.971L816.116 174.76L815.769 174.4ZM850.169 141.2L850.516 141.56L850.523 141.553L850.53 141.546L850.169 141.2ZM858.369 134.4L858.612 134.837L858.619 134.833L858.369 134.4ZM876.569 135.6L876.183 135.918L876.188 135.924L876.192 135.929L876.569 135.6ZM878.769 143.8L878.272 143.74L878.271 143.749L878.27 143.758L878.769 143.8ZM874.169 153L874.519 153.357L874.525 153.351L874.53 153.345L874.169 153ZM839.769 186.8L839.269 186.817L839.308 187.954L840.119 187.157L839.769 186.8ZM839.369 175L839.771 174.703L838.815 173.409L838.869 175.017L839.369 175ZM867.169 212.6L867.58 212.315L867.575 212.309L867.571 212.303L867.169 212.6ZM866.569 230.6L866.911 230.964L866.911 230.964L866.569 230.6ZM846.969 231.2L846.662 231.595L846.674 231.604L846.686 231.613L846.969 231.2ZM839.169 222.4L839.578 222.113L839.574 222.107L839.569 222.1L839.169 222.4ZM813.569 188.2L813.969 187.9L813.819 187.7H813.569V188.2ZM813.169 188.2V187.7H812.741L812.675 188.123L813.169 188.2ZM808.369 219L808.862 219.08L808.863 219.077L808.369 219ZM790.969 233.3C786.28 233.3 782.993 231.809 780.979 228.914L780.158 229.486C782.411 232.724 786.057 234.3 790.969 234.3V233.3ZM780.985 228.923C778.945 225.863 778.274 221.67 779.063 216.272L778.074 216.128C777.264 221.664 777.926 226.137 780.153 229.477L780.985 228.923ZM779.063 216.278L796.863 104.078L795.875 103.922L778.075 216.122L779.063 216.278ZM796.864 104.067C797.519 99.2187 799.278 95.6842 802.085 93.387L801.452 92.613C798.393 95.1157 796.551 98.9147 795.873 103.933L796.864 104.067ZM802.096 93.3784C804.913 90.945 808.785 89.7 813.769 89.7V88.7C808.62 88.7 804.491 89.9883 801.442 92.6216L802.096 93.3784ZM813.769 89.7C818.309 89.7 821.533 91.2473 823.553 94.2773L824.385 93.7226C822.138 90.3527 818.562 88.7 813.769 88.7V89.7ZM823.558 94.2855C825.59 97.206 826.265 101.392 825.474 106.929L826.464 107.071C827.273 101.408 826.614 96.9273 824.379 93.7145L823.558 94.2855ZM825.475 106.922L814.875 174.322L815.863 174.478L826.463 107.078L825.475 106.922ZM815.369 174.9H815.769V173.9H815.369V174.9ZM816.116 174.76L850.516 141.56L849.822 140.84L815.422 174.04L816.116 174.76ZM850.53 141.546C853.58 138.363 856.274 136.136 858.612 134.837L858.126 133.963C855.664 135.331 852.891 137.637 849.808 140.854L850.53 141.546ZM858.619 134.833C861.061 133.419 864.037 132.7 867.569 132.7V131.7C863.901 131.7 860.743 132.447 858.118 133.967L858.619 134.833ZM867.569 132.7C871.616 132.7 874.445 133.808 876.183 135.918L876.955 135.282C874.959 132.859 871.788 131.7 867.569 131.7V132.7ZM876.192 135.929C877.948 137.936 878.659 140.519 878.272 143.74L879.265 143.86C879.679 140.414 878.922 137.531 876.945 135.271L876.192 135.929ZM878.27 143.758C878.016 146.817 876.549 149.782 873.807 152.655L874.53 153.345C877.388 150.351 878.989 147.183 879.267 143.842L878.27 143.758ZM873.818 152.643L839.418 186.443L840.119 187.157L874.519 153.357L873.818 152.643ZM840.268 186.783L839.868 174.983L838.869 175.017L839.269 186.817L840.268 186.783ZM838.967 175.297L866.767 212.897L867.571 212.303L839.771 174.703L838.967 175.297ZM866.758 212.885C869.113 216.286 870.125 219.506 869.87 222.558L870.867 222.642C871.146 219.294 870.025 215.847 867.58 212.315L866.758 212.885ZM869.87 222.558C869.614 225.64 868.4 228.19 866.226 230.236L866.911 230.964C869.271 228.743 870.59 225.96 870.867 222.642L869.87 222.558ZM866.226 230.236C864.073 232.262 861.14 233.3 857.369 233.3V234.3C861.33 234.3 864.531 233.205 866.911 230.964L866.226 230.236ZM857.369 233.3C853.028 233.3 849.672 232.444 847.251 230.787L846.686 231.613C849.332 233.423 852.91 234.3 857.369 234.3V233.3ZM847.276 230.805C844.932 228.982 842.365 226.094 839.578 222.113L838.759 222.687C841.573 226.706 844.206 229.685 846.662 231.595L847.276 230.805ZM839.569 222.1L813.969 187.9L813.168 188.5L838.768 222.7L839.569 222.1ZM813.569 187.7H813.169V188.7H813.569V187.7ZM812.675 188.123L807.875 218.923L808.863 219.077L813.663 188.277L812.675 188.123ZM807.875 218.92C807.088 223.773 805.279 227.351 802.495 229.719C799.71 232.088 795.888 233.3 790.969 233.3V234.3C796.05 234.3 800.127 233.046 803.143 230.481C806.158 227.916 808.049 224.093 808.862 219.08L807.875 218.92ZM891.692 229.2L891.276 229.477L891.283 229.487L891.29 229.497L891.692 229.2ZM889.892 216.2L890.385 216.284L890.386 216.279L889.892 216.2ZM900.892 147.2L901.386 147.279L901.388 147.265L900.892 147.2ZM906.292 136L906.609 136.387L906.619 136.378L906.292 136ZM930.492 149.8L930.986 149.879L930.987 149.871L930.492 149.8ZM919.492 218.8L919.986 218.88L919.986 218.879L919.492 218.8ZM914.092 230L914.428 230.371L914.428 230.371L914.092 230ZM909.092 112L908.739 112.354L908.748 112.362L909.092 112ZM906.092 101.2L905.598 101.124L905.597 101.134L905.595 101.143L906.092 101.2ZM912.292 89.6L912.595 89.9982L912.605 89.9904L912.292 89.6ZM937.892 89.4L938.237 89.0375L938.237 89.0375L937.892 89.4ZM940.692 100.4L940.199 100.318L940.198 100.326L940.196 100.335L940.692 100.4ZM934.692 112L934.995 112.398L935.005 112.39L934.692 112ZM902.092 233.3C897.544 233.3 894.245 231.813 892.094 228.903L891.29 229.497C893.672 232.72 897.307 234.3 902.092 234.3V233.3ZM892.108 228.923C890.072 225.868 889.464 221.68 890.385 216.284L889.399 216.116C888.454 221.653 889.046 226.132 891.276 229.477L892.108 228.923ZM890.386 216.279L901.386 147.279L900.398 147.121L889.398 216.121L890.386 216.279ZM901.388 147.265C902.044 142.28 903.804 138.682 906.609 136.387L905.976 135.613C902.914 138.118 901.074 141.987 900.396 147.135L901.388 147.265ZM906.619 136.378C909.437 133.945 913.308 132.7 918.292 132.7V131.7C913.143 131.7 909.014 132.988 905.965 135.622L906.619 136.378ZM918.292 132.7C922.841 132.7 926.065 134.187 928.082 137.086L928.903 136.514C926.652 133.28 923.077 131.7 918.292 131.7V132.7ZM928.082 137.086C930.113 140.006 930.788 144.192 929.997 149.729L930.987 149.871C931.796 144.208 931.138 139.727 928.903 136.514L928.082 137.086ZM929.998 149.721L918.998 218.721L919.986 218.879L930.986 149.879L929.998 149.721ZM918.999 218.72C918.211 223.578 916.449 227.194 913.757 229.629L914.428 230.371C917.336 227.74 919.173 223.889 919.986 218.88L918.999 218.72ZM913.757 229.629C911.078 232.052 907.215 233.3 902.092 233.3V234.3C907.369 234.3 911.506 233.014 914.428 230.371L913.757 229.629ZM921.092 115.3C915.83 115.3 911.976 114.05 909.437 111.637L908.748 112.362C911.542 115.017 915.688 116.3 921.092 116.3V115.3ZM909.446 111.646C907.052 109.253 906.067 105.823 906.589 101.257L905.595 101.143C905.051 105.91 906.066 109.681 908.739 112.354L909.446 111.646ZM906.586 101.276C907.372 96.1697 909.389 92.4341 912.595 89.9981L911.99 89.2019C908.528 91.8325 906.412 95.8303 905.598 101.124L906.586 101.276ZM912.605 89.9904C915.823 87.4157 920.234 86.1 925.892 86.1V85.1C920.084 85.1 915.428 86.451 911.98 89.2096L912.605 89.9904ZM925.892 86.1C931.155 86.1 935.009 87.3503 937.548 89.7625L938.237 89.0375C935.442 86.383 931.296 85.1 925.892 85.1V86.1ZM937.548 89.7625C940.057 92.1459 940.981 95.6229 940.199 100.318L941.185 100.482C942.003 95.5771 941.061 91.7208 938.237 89.0375L937.548 89.7625ZM940.196 100.335C939.543 105.3 937.593 109.039 934.38 111.61L935.005 112.39C938.458 109.628 940.508 105.633 941.188 100.465L940.196 100.335ZM934.39 111.602C931.17 114.049 926.756 115.3 921.092 115.3V116.3C926.895 116.3 931.547 115.018 934.995 112.398L934.39 111.602ZM945.208 229.2L944.792 229.477L944.799 229.487L944.806 229.497L945.208 229.2ZM943.408 216.2L943.901 216.284L943.902 216.279L943.408 216.2ZM954.408 147.2L954.902 147.279L954.904 147.265L954.408 147.2ZM959.808 136L960.125 136.387L960.135 136.378L959.808 136ZM984.008 149.8L984.502 149.879L984.503 149.871L984.008 149.8ZM973.008 218.8L973.501 218.88L973.502 218.879L973.008 218.8ZM967.608 230L967.943 230.371L967.943 230.371L967.608 230ZM962.608 112L962.254 112.354L962.263 112.362L962.608 112ZM959.608 101.2L959.114 101.124L959.112 101.134L959.111 101.143L959.608 101.2ZM965.808 89.6L966.11 89.9982L966.12 89.9904L965.808 89.6ZM991.408 89.4L991.752 89.0375L991.752 89.0375L991.408 89.4ZM994.208 100.4L993.715 100.318L993.713 100.326L993.712 100.335L994.208 100.4ZM988.208 112L988.51 112.398L988.52 112.39L988.208 112ZM955.608 233.3C951.06 233.3 947.761 231.813 945.61 228.903L944.806 229.497C947.188 232.72 950.822 234.3 955.608 234.3V233.3ZM945.624 228.923C943.587 225.868 942.979 221.68 943.901 216.284L942.915 216.116C941.97 221.653 942.562 226.132 944.792 229.477L945.624 228.923ZM943.902 216.279L954.902 147.279L953.914 147.121L942.914 216.121L943.902 216.279ZM954.904 147.265C955.56 142.28 957.32 138.682 960.124 136.387L959.491 135.613C956.429 138.118 954.589 141.987 953.912 147.135L954.904 147.265ZM960.135 136.378C962.952 133.945 966.824 132.7 971.808 132.7V131.7C966.659 131.7 962.53 132.988 959.481 135.622L960.135 136.378ZM971.808 132.7C976.357 132.7 979.581 134.187 981.597 137.086L982.418 136.514C980.168 133.28 976.592 131.7 971.808 131.7V132.7ZM981.597 137.086C983.629 140.006 984.304 144.192 983.513 149.729L984.503 149.871C985.312 144.208 984.653 139.727 982.418 136.514L981.597 137.086ZM983.514 149.721L972.514 218.721L973.502 218.879L984.502 149.879L983.514 149.721ZM972.514 218.72C971.727 223.578 969.964 227.194 967.272 229.629L967.943 230.371C970.851 227.74 972.689 223.889 973.501 218.88L972.514 218.72ZM967.272 229.629C964.594 232.052 960.731 233.3 955.608 233.3V234.3C960.885 234.3 965.022 233.014 967.943 230.371L967.272 229.629ZM974.608 115.3C969.345 115.3 965.491 114.05 962.952 111.637L962.263 112.362C965.058 115.017 969.204 116.3 974.608 116.3V115.3ZM962.961 111.646C960.567 109.253 959.583 105.823 960.105 101.257L959.111 101.143C958.566 105.91 959.581 109.681 962.254 112.354L962.961 111.646ZM960.102 101.276C960.888 96.1697 962.905 92.4341 966.11 89.9981L965.505 89.2019C962.044 91.8325 959.928 95.8303 959.114 101.124L960.102 101.276ZM966.12 89.9904C969.339 87.4157 973.749 86.1 979.408 86.1V85.1C973.6 85.1 968.944 86.451 965.495 89.2096L966.12 89.9904ZM979.408 86.1C984.67 86.1 988.524 87.3503 991.063 89.7625L991.752 89.0375C988.958 86.383 984.812 85.1 979.408 85.1V86.1ZM991.063 89.7625C993.572 92.1459 994.497 95.6229 993.715 100.318L994.701 100.482C995.519 95.5771 994.577 91.7208 991.752 89.0375L991.063 89.7625ZM993.712 100.335C993.059 105.3 991.109 109.039 987.895 111.61L988.52 112.39C991.974 109.628 994.024 105.633 994.704 100.465L993.712 100.335ZM987.905 111.602C984.686 114.049 980.272 115.3 974.608 115.3V116.3C980.411 116.3 985.063 115.018 988.51 112.398L987.905 111.602Z" fill="#FFFDFD"/>
</g>
<defs>
<filter id="filter0_d_201_2" x="16.3507" y="0.799988" width="265.6" height="317.5" filterUnits="userSpaceOnUse" color-interpolation-filters="sRGB">
<feFlood flood-opacity="0" result="BackgroundImageFix"/>
<feColorMatrix in="SourceAlpha" type="matrix" values="0 0 0 0 0 0 0 0 0 0 0 0 0 0 0 0 0 0 127 0" result="hardAlpha"/>
<feOffset/>
<feGaussianBlur stdDeviation="25"/>
<feComposite in2="hardAlpha" operator="out"/>
<feColorMatrix type="matrix" values="0 0 0 0 0 0 0 0 0 0 0 0 0 0 0 0 0 0 0.5 0"/>
<feBlend mode="normal" in2="BackgroundImageFix" result="effect1_dropShadow_201_2"/>
<feBlend mode="normal" in="SourceGraphic" in2="effect1_dropShadow_201_2" result="shape"/>
</filter>
<filter id="filter1_d_201_2" x="199.077" y="35.6" width="846.331" height="248.6" filterUnits="userSpaceOnUse" color-interpolation-filters="sRGB">
<feFlood flood-opacity="0" result="BackgroundImageFix"/>
<feColorMatrix in="SourceAlpha" type="matrix" values="0 0 0 0 0 0 0 0 0 0 0 0 0 0 0 0 0 0 127 0" result="hardAlpha"/>
<feOffset/>
<feGaussianBlur stdDeviation="25"/>
<feComposite in2="hardAlpha" operator="out"/>
<feColorMatrix type="matrix" values="0 0 0 0 0 0 0 0 0 0 0 0 0 0 0 0 0 0 0.5 0"/>
<feBlend mode="normal" in2="BackgroundImageFix" result="effect1_dropShadow_201_2"/>
<feBlend mode="normal" in="SourceGraphic" in2="effect1_dropShadow_201_2" result="shape"/>
</filter>
</defs>
</svg>
